<svg width="45" height="45" viewBox="0 0 45 45" fill="none" xmlns="http://www.w3.org/2000/svg">
<path d="M21.4341 43.5138C21.3539 43.1162 21.26 42.7208 21.1964 42.3205C21.0622 41.4759 20.9453 40.6286 20.8187 39.7827C20.6969 38.9693 20.575 38.1559 20.4474 37.3435C20.3277 36.5811 20.1967 35.8206 20.0775 35.0582C19.9488 34.2354 19.8293 33.4111 19.7035 32.5879C19.497 31.2363 19.2904 29.8847 19.0805 28.5336C18.8761 27.2176 18.6663 25.9024 18.4613 24.5864C18.4136 24.2803 18.3756 23.9727 18.3389 23.6198C18.4607 23.5493 18.5768 23.5039 18.6931 23.5034C19.871 23.4982 21.049 23.4984 22.2269 23.5012C23.0222 23.5031 23.8174 23.5117 24.6071 23.5406C24.5879 23.6138 24.5689 23.6629 24.5612 23.7137C24.3141 25.3369 24.0699 26.9605 23.8216 28.5836C23.592 30.0844 23.3576 31.5846 23.1264 33.0853C22.8419 34.9329 22.5572 36.7806 22.2752 38.6286C22.057 40.058 21.8466 41.4885 21.6222 42.9169C21.5902 43.1206 21.4983 43.315 21.4341 43.5138Z" fill="#AF8A82"/>
<path d="M18.2725 17.6415C17.7426 17.1669 17.1373 16.7524 16.7007 16.2035C16.0639 15.403 15.5885 14.5085 15.514 13.4244C15.4611 12.6544 15.5875 11.9429 15.7923 11.2173C16.2168 9.713 17.2308 8.64913 18.386 7.69379C18.925 7.24802 19.5077 6.8552 20.0694 6.43677C20.5676 6.06559 21.0715 5.70141 21.5596 5.31721C22.058 4.92488 22.3752 4.40084 22.6104 3.81714C23.2176 5.15424 23.0465 6.44616 22.466 7.72055C22.1842 8.33915 21.8769 8.94847 21.6389 9.58363C21.5208 9.89885 21.4597 10.2718 21.4997 10.6034C21.6426 11.7872 22.9804 12.6151 24.0694 12.4841C24.6047 12.4197 25.0859 12.2143 25.3582 11.6948C25.8618 11.4981 26.3217 11.2349 26.7052 10.8456C26.7256 11.3788 26.7577 11.8936 26.7165 12.4026C26.6836 12.8081 26.604 13.2213 26.47 13.6049C26.153 14.5131 25.5768 15.2693 24.941 15.9761C24.714 16.2284 24.4343 16.4333 24.1829 16.6374C24.3667 16.2434 24.5503 15.8738 24.7245 15.4999C24.9156 15.0895 24.7858 14.7359 24.3716 14.6515C24.0221 14.5804 23.6565 14.5746 23.2975 14.5679C22.9682 14.5618 22.6378 14.6108 22.3086 14.6032C21.9631 14.5952 21.6871 14.415 21.5291 14.1155C21.386 13.8443 21.2396 13.5523 21.1978 13.255C21.1163 12.675 21.107 12.0848 21.0675 11.4988C21.0598 11.3855 21.0509 11.2722 21.0425 11.1589C21.008 11.1452 20.9736 11.1315 20.9391 11.1178C20.5921 11.5219 20.2309 11.9147 19.9008 12.3322C18.9712 13.5077 18.5372 14.8228 18.8377 16.3274C18.9327 16.8032 19.0447 17.2756 19.121 17.7549C18.8195 17.7206 18.546 17.681 18.2725 17.6415Z" fill="#FED130"/>
<path d="M21.4299 43.533C21.4982 43.315 21.5901 43.1207 21.6222 42.9169C21.8466 41.4885 22.0569 40.058 22.2751 38.6287C22.5572 36.7806 22.8419 34.933 23.1264 33.0853C23.3575 31.5846 23.5919 30.0845 23.8215 28.5836C24.0698 26.9606 24.3141 25.3369 24.5611 23.7137C24.5689 23.6629 24.5878 23.6138 24.6359 23.535C25.1493 23.501 25.6282 23.496 26.1353 23.4954C26.4378 23.5399 26.7121 23.58 26.9865 23.6201C26.8211 24.6705 26.6528 25.7205 26.4911 26.7715C26.3591 27.63 26.2354 28.4899 26.1072 29.3491C25.9803 30.1996 25.8543 31.0503 25.7243 31.9004C25.6059 32.6745 25.4845 33.4481 25.3613 34.2215C25.2396 34.9858 25.1067 35.7484 24.9922 36.5138C24.8388 37.5382 24.7055 38.5655 24.5501 39.5895C24.4401 40.3144 24.3077 41.0359 24.1855 41.7589C24.0823 42.369 23.9818 42.9795 23.8755 43.589C23.8002 44.0207 23.4643 44.2727 23.1297 44.4393C22.4083 44.7984 21.6632 44.2936 21.4299 43.533Z" fill="#937366"/>
<path d="M18.2515 17.647C18.5459 17.6812 18.8194 17.7208 19.1489 17.7607C19.4623 17.7635 19.7197 17.7688 19.9771 17.7678C21.2741 17.7625 22.5711 17.7556 23.8967 17.7547C24.4298 17.7622 24.9347 17.7767 25.4388 17.7611C25.6797 17.7537 25.9189 17.6894 26.1588 17.6509C26.7136 17.6541 27.2684 17.6572 27.8232 17.6609C27.9257 17.6616 28.0281 17.6649 28.1337 17.7073C28.0595 17.9153 27.9751 18.0804 27.9062 18.2517C27.584 19.0538 27.169 19.8043 26.5088 20.3716C26.0357 20.7781 25.5006 21.1124 24.9639 21.4835C22.685 21.49 20.4354 21.4951 18.1858 21.4888C17.9885 21.4882 17.7913 21.413 17.5941 21.3724C16.8415 20.8663 16.1109 20.3259 15.5848 19.5775C15.2838 19.1492 15.0623 18.6635 14.8206 18.1956C14.735 18.0298 14.9445 17.7359 15.1616 17.7182C15.5035 17.6902 15.8474 17.6803 16.1906 17.6766C16.6572 17.6715 17.1239 17.6826 17.5905 17.6802C17.8039 17.679 18.0173 17.6621 18.2515 17.647Z" fill="#B9BBC0"/>
<path d="M25.3331 11.6905C25.0858 12.2145 24.6045 12.4199 24.0693 12.4843C22.9803 12.6153 21.6424 11.7874 21.4995 10.6036C21.4595 10.272 21.5206 9.89905 21.6388 9.58383C21.8768 8.94867 22.1841 8.33935 22.4659 7.72076C23.0463 6.44636 23.2175 5.15444 22.6304 3.80716C22.6217 3.55919 22.6258 3.33263 22.6225 3.10617C22.6148 2.56716 22.438 2.09101 22.0927 1.67487C21.9586 1.51322 21.8284 1.3457 21.7204 1.1664C21.6791 1.09787 21.6658 0.942711 21.7076 0.907277C21.8224 0.810139 21.9991 0.668301 22.105 0.699779C22.4965 0.816083 22.9048 0.941561 23.2408 1.16353C23.7267 1.4846 24.1781 1.86822 24.6036 2.2684C25.6637 3.26556 26.1673 4.49974 26.0114 5.95789C25.9626 6.41457 25.8379 6.87637 25.668 7.30405C25.348 8.10943 24.9469 8.88254 24.6258 9.68755C24.4703 10.0775 24.3623 10.5055 24.3353 10.9228C24.2978 11.502 24.6607 11.7537 25.3331 11.6905Z" fill="#F7BD14"/>
<path d="M26.1679 17.6312C25.9191 17.6894 25.6799 17.7537 25.4389 17.7611C24.9349 17.7766 24.43 17.7622 23.897 17.7309C23.9719 17.3545 24.0752 17.0072 24.1786 16.6599C24.4343 16.4334 24.7141 16.2285 24.9411 15.9762C25.5769 15.2694 26.153 14.5132 26.4701 13.605C26.604 13.2214 26.6836 12.8082 26.7165 12.4027C26.7578 11.8937 26.7256 11.3789 26.7247 10.8375C27.0357 10.4138 27.3734 10.0366 27.6505 9.61922C27.8763 9.27922 28.0188 8.88508 28.2195 8.52688C28.3112 8.36322 28.4542 8.22829 28.5739 8.08032C28.7252 8.20575 28.9331 8.3012 29.0182 8.46173C29.4194 9.21802 29.6691 10.0246 29.7753 10.8806C29.9007 11.89 29.8319 12.8763 29.4579 13.8211C29.2066 14.4559 28.8482 15.0443 28.3693 15.5355C27.7583 16.1623 27.1157 16.7584 26.4839 17.3647C26.3895 17.4553 26.2796 17.5297 26.1679 17.6312Z" fill="#F7BC15"/>
<path d="M17.5682 21.376C17.7915 21.4129 17.9886 21.4882 18.1859 21.4887C20.4355 21.495 22.6852 21.49 24.9921 21.4887C25.4211 21.4931 25.7927 21.4968 26.1633 21.527C26.1439 22.1994 26.1255 22.8452 26.1071 23.491C25.6282 23.4961 25.1493 23.5011 24.6415 23.5118C23.8174 23.5118 23.0222 23.5032 22.2269 23.5013C21.0489 23.4985 19.871 23.4983 18.693 23.5035C18.5768 23.504 18.4607 23.5494 18.3328 23.5963C18.0028 23.6028 17.684 23.5934 17.3663 23.5696C16.9874 23.5411 16.7236 23.2592 16.7196 22.8912C16.7171 22.6641 16.7266 22.4365 16.7168 22.2098C16.6899 21.5851 17.0292 21.4154 17.5682 21.376Z" fill="#FFB125"/>
<path d="M26.1642 21.5006C25.7926 21.4968 25.421 21.4931 25.0212 21.4842C25.5006 21.1124 26.0357 20.7781 26.5088 20.3716C27.169 19.8043 27.584 19.0538 27.9062 18.2517C27.9751 18.0804 28.0595 17.9154 28.1478 17.7282C28.3989 17.692 28.6393 17.6585 28.8793 17.6616C29.3012 17.667 29.7249 17.6757 30.144 17.7199C30.4159 17.7486 30.5665 18.0207 30.4526 18.2651C30.2888 18.6164 30.098 18.9562 29.9022 19.2913C29.5271 19.9338 28.9904 20.433 28.4201 20.895C28.2126 21.0632 27.97 21.188 27.7083 21.3553C27.1702 21.4188 26.6672 21.4597 26.1642 21.5006Z" fill="#A1A4AA"/>
<path d="M26.1633 21.5271C26.6673 21.4597 27.1703 21.4189 27.6981 21.3738C27.8243 21.393 27.9248 21.4303 28.0273 21.4373C28.2798 21.4543 28.4509 21.6031 28.4632 21.8277C28.4885 22.2899 28.5056 22.7623 28.4356 23.2166C28.3913 23.5045 28.0782 23.5863 27.7942 23.5977C27.5388 23.6079 27.2831 23.6121 27.007 23.6196C26.7121 23.5802 26.4378 23.5401 26.1353 23.4955C26.1255 22.8453 26.1439 22.1995 26.1633 21.5271Z" fill="#FF911D"/>
<path d="M24.1829 16.6375C24.0753 17.0072 23.9719 17.3545 23.8684 17.7256C22.5713 17.7556 21.2743 17.7625 19.9773 17.7678C19.7199 17.7688 19.4625 17.7635 19.177 17.7554C19.0447 17.2758 18.9328 16.8033 18.8378 16.3275C18.5373 14.823 18.9713 13.5079 19.9008 12.3323C20.2309 11.9148 20.5922 11.522 20.9392 11.1179C20.9736 11.1316 21.0081 11.1453 21.0426 11.159C21.0509 11.2723 21.0599 11.3856 21.0675 11.499C21.1071 12.0849 21.1164 12.6751 21.1979 13.2551C21.2397 13.5525 21.3861 13.8444 21.5292 14.1157C21.6871 14.4151 21.9631 14.5954 22.3086 14.6033C22.6378 14.6109 22.9683 14.5619 23.2976 14.5681C23.6566 14.5747 24.0222 14.5805 24.3717 14.6517C24.7859 14.736 24.9157 15.0896 24.7246 15.5C24.5504 15.874 24.3667 16.2435 24.1829 16.6375Z" fill="#FD9828"/>
</svg>
